<?xml version="1.0" encoding="UTF-8" standalone="no"?>
<!-- Created with Inkscape (http://www.inkscape.org/) -->

<svg
   width="256"
   height="256"
   viewBox="0 0 67.733332 67.733333"
   version="1.1"
   id="svg2511"
   inkscape:version="1.2.2 (b0a8486541, 2022-12-01)"
   xml:space="preserve"
   sodipodi:docname="movieReactThumb.svg"
   xmlns:inkscape="http://www.inkscape.org/namespaces/inkscape"
   xmlns:sodipodi="http://sodipodi.sourceforge.net/DTD/sodipodi-0.dtd"
   xmlns="http://www.w3.org/2000/svg"
   xmlns:svg="http://www.w3.org/2000/svg"><sodipodi:namedview
     id="namedview2513"
     pagecolor="#354b5f"
     bordercolor="#000000"
     borderopacity="0.25"
     inkscape:showpageshadow="2"
     inkscape:pageopacity="1"
     inkscape:pagecheckerboard="0"
     inkscape:deskcolor="#d1d1d1"
     inkscape:document-units="px"
     showgrid="false"
     inkscape:zoom="3.840042"
     inkscape:cx="61.848282"
     inkscape:cy="145.57132"
     inkscape:window-width="1904"
     inkscape:window-height="975"
     inkscape:window-x="35"
     inkscape:window-y="32"
     inkscape:window-maximized="0"
     inkscape:current-layer="layer1" /><defs
     id="defs2508">
</defs><g
     inkscape:label="Layer 1"
     inkscape:groupmode="layer"
     id="layer1"><circle
       style="fill:#354b5f;fill-opacity:1;stroke:none;stroke-width:2.64583;stroke-linejoin:round"
       id="path4497"
       cx="33.866669"
       cy="33.866665"
       r="33.866665" /><g
       id="g1850"><path
         style="color:#000000;fill:#4e94e4;stroke-width:1.32292;-inkscape-stroke:none"
         d="M 15.167549,28.943969 V 47.77176 c 0,1.634331 1.323628,2.957959 2.957959,2.957959 h 31.945337 c 1.633068,0 2.957959,-1.323628 2.957959,-2.957959 V 28.943969 Z m 16.556096,5.671489 c 0.02912,4.57e-4 0.0578,0.0084 0.08371,0.02377 l 7.158737,4.273124 c 0.05056,0.02958 0.08113,0.08516 0.08113,0.143144 0,0.05916 -0.03064,0.114597 -0.08113,0.144177 l -7.158737,4.273124 c -0.05175,0.03203 -0.115974,0.03296 -0.168981,0.0021 -0.05175,-0.02958 -0.08475,-0.08515 -0.08475,-0.146761 v -4.272607 -4.272091 c 0,-0.06161 0.03301,-0.117181 0.08475,-0.146761 0.0265,-0.01479 0.05615,-0.02164 0.08527,-0.02119 z"
         id="path1842" /><path
         style="color:#000000;fill:#4e94e4;stroke-width:1.32292;-inkscape-stroke:none"
         d="m 18.637105,22.529891 -1.511536,0.280086 c -1.605932,0.297066 -2.668497,1.837556 -2.371431,3.444751 l 0.412895,2.238623 h 1.045414 l -0.0615,-0.08888 2.486153,-5.527827 z"
         id="path1840" /><path
         style="color:#000000;fill:#4e94e4;stroke-width:1.32292;-inkscape-stroke:none"
         d="m 27.742492,20.850407 -4.990393,0.920874 -2.654618,5.903515 4.990393,-0.920874 z"
         id="path1838" /><path
         style="color:#000000;fill:#4e94e4;stroke-width:1.32292;-inkscape-stroke:none"
         d="m 36.679414,19.199861 -4.990393,0.921908 -2.656168,5.904032 4.99091,-0.921907 z"
         id="path1836" /><path
         style="color:#000000;fill:#4e94e4;stroke-width:1.32292;-inkscape-stroke:none"
         d="m 45.616853,17.550866 -4.991943,0.921908 -2.654618,5.904032 4.990393,-0.921907 z"
         id="path1834" /><path
         style="color:#000000;fill:#4e94e4;stroke-width:1.32292;-inkscape-stroke:none"
         d="m 49.480183,17.003613 -2.57452,5.723682 5.510775,-1.015442 -0.430465,-2.328023 c -0.236641,-1.287965 -1.276986,-2.210149 -2.50579,-2.380217 z"
         id="path2000" /></g></g><style
     type="text/css"
     id="style435">
<![CDATA[
	.st0{fill:#000000;}
]]>
</style><style
     type="text/css"
     id="style450">
<![CDATA[
	.st0{fill:#000000;}
]]>
</style></svg>
