<?xml version="1.0" encoding="UTF-8" standalone="no"?>
<!-- Created with Inkscape (http://www.inkscape.org/) -->

<svg
   width="256"
   height="256"
   viewBox="0 0 67.733332 67.733333"
   version="1.1"
   id="svg2511"
   inkscape:version="1.2.2 (b0a8486541, 2022-12-01)"
   xml:space="preserve"
   sodipodi:docname="movieReactThumb.svg"
   xmlns:inkscape="http://www.inkscape.org/namespaces/inkscape"
   xmlns:sodipodi="http://sodipodi.sourceforge.net/DTD/sodipodi-0.dtd"
   xmlns="http://www.w3.org/2000/svg"
   xmlns:svg="http://www.w3.org/2000/svg"><sodipodi:namedview
     id="namedview2513"
     pagecolor="#354b5f"
     bordercolor="#000000"
     borderopacity="0.25"
     inkscape:showpageshadow="2"
     inkscape:pageopacity="1"
     inkscape:pagecheckerboard="0"
     inkscape:deskcolor="#d1d1d1"
     inkscape:document-units="px"
     showgrid="false"
     inkscape:zoom="0.33941497"
     inkscape:cx="1078.326"
     inkscape:cy="315.24832"
     inkscape:window-width="1904"
     inkscape:window-height="975"
     inkscape:window-x="35"
     inkscape:window-y="32"
     inkscape:window-maximized="0"
     inkscape:current-layer="layer1" /><defs
     id="defs2508">
</defs><g
     inkscape:label="Layer 1"
     inkscape:groupmode="layer"
     id="layer1"><circle
       style="fill:#354b5f;fill-opacity:1;stroke:none;stroke-width:2.64583;stroke-linejoin:round"
       id="path4497"
       cx="33.866669"
       cy="33.866665"
       r="33.866665" /><g
       id="g645"
       transform="translate(0.74804868,-1.6685862)"><path
         class="st0"
         d="m 14.419298,49.4402 c 0,1.634332 1.323697,2.958031 2.95803,2.958031 h 31.945473 c 1.63307,0 2.958031,-1.323699 2.958031,-2.958031 V 30.612372 H 14.419298 Z m 16.386229,-8.716332 v -4.27187 c 0,-0.06161 0.03329,-0.117059 0.08503,-0.146639 0.05301,-0.02958 0.11706,-0.02832 0.168884,0.0024 l 7.158435,4.273132 c 0.05056,0.02958 0.08133,0.08503 0.08133,0.143011 0,0.05916 -0.03084,0.114614 -0.08133,0.144194 l -7.158435,4.273053 c -0.05175,0.03203 -0.115876,0.03329 -0.168884,0.0024 -0.05175,-0.02958 -0.08503,-0.08503 -0.08503,-0.14664 z"
         id="path452"
         style="fill:#ffffff;stroke-width:0.0788807" /><path
         id="path458"
         style="fill:#ffffff;stroke-width:0.0788807"
         class="st0"
         d="m 17.88917,24.198416 -1.511536,0.280086 c -1.605934,0.297066 -2.668497,1.837555 -2.371431,3.444751 l 0.412895,2.238623 h 1.045414 l -0.0615,-0.08888 2.486153,-5.527828 z" /><polygon
         class="st0"
         points="178.363,48.766 115.097,60.438 81.441,135.281 144.707,123.609 "
         id="polygon464"
         transform="matrix(0.07888083,0,0,0.07888083,12.925215,18.672274)"
         style="fill:#ffffff" /><polygon
         class="st0"
         points="291.66,27.844 228.394,39.531 194.722,114.375 257.988,102.688 "
         id="polygon466"
         transform="matrix(0.07888083,0,0,0.07888083,12.925215,18.672274)"
         style="fill:#ffffff" /><polygon
         class="st0"
         points="404.957,6.938 341.675,18.625 308.019,93.469 371.285,81.781 "
         id="polygon468"
         transform="matrix(0.07888083,0,0,0.07888083,12.925215,18.672274)"
         style="fill:#ffffff" /><path
         class="st0"
         d="m 51.238106,21.052267 c -0.236642,-1.287966 -1.276923,-2.209925 -2.505728,-2.379993 l -2.57467,5.723831 5.510535,-1.015592 z"
         id="path470"
         style="fill:#ffffff;stroke-width:0.0788807" /></g></g><style
     type="text/css"
     id="style435">
<![CDATA[
	.st0{fill:#000000;}
]]>
</style><style
     type="text/css"
     id="style450">
<![CDATA[
	.st0{fill:#000000;}
]]>
</style></svg>
