<?xml version="1.0" encoding="UTF-8" standalone="no"?>
<!-- Created with Inkscape (http://www.inkscape.org/) -->

<svg
   width="256"
   height="256"
   viewBox="0 0 67.733332 67.733333"
   version="1.1"
   id="svg5"
   xml:space="preserve"
   inkscape:version="1.2.2 (b0a8486541, 2022-12-01)"
   sodipodi:docname="pokeApiThumb.svg"
   xmlns:inkscape="http://www.inkscape.org/namespaces/inkscape"
   xmlns:sodipodi="http://sodipodi.sourceforge.net/DTD/sodipodi-0.dtd"
   xmlns="http://www.w3.org/2000/svg"
   xmlns:svg="http://www.w3.org/2000/svg"><sodipodi:namedview
     id="namedview7"
     pagecolor="#ffffff"
     bordercolor="#000000"
     borderopacity="0.25"
     inkscape:showpageshadow="2"
     inkscape:pageopacity="0.0"
     inkscape:pagecheckerboard="0"
     inkscape:deskcolor="#d1d1d1"
     inkscape:document-units="px"
     showgrid="false"
     inkscape:zoom="1.3576599"
     inkscape:cx="65.185692"
     inkscape:cy="164.98977"
     inkscape:window-width="1904"
     inkscape:window-height="975"
     inkscape:window-x="35"
     inkscape:window-y="32"
     inkscape:window-maximized="0"
     inkscape:current-layer="layer1" /><defs
     id="defs2" /><g
     inkscape:label="Layer 1"
     inkscape:groupmode="layer"
     id="layer1"><path
       id="path2088"
       style="fill:#354b5f;stroke-width:0;stroke-dasharray:none"
       d="M 67.733332,33.866667 A 33.866665,33.866665 0 0 1 33.866672,67.733332 33.866665,33.866665 0 0 1 2.5e-6,33.866667 33.866665,33.866665 0 0 1 33.866672,9.4999966e-7 33.866665,33.866665 0 0 1 67.733332,33.866667 Z" /><path
       style="color:#000000;fill:#4e94e4;stroke-width:1.32292;-inkscape-stroke:none"
       d="M 9.114689,35.738387 A 24.830276,24.830276 0 0 0 33.866666,58.697192 24.830276,24.830276 0 0 0 58.618643,35.738387 H 43.136901 c -0.873811,4.314842 -4.705877,7.585583 -9.269718,7.585583 -4.56384,0 -8.395907,-3.270741 -9.269718,-7.585583 z"
       id="path2085" /><path
       style="fill:#4e94e4;fill-opacity:1;stroke:none;stroke-width:3.23709;stroke-dasharray:none;stroke-opacity:1"
       d="m 9.0366576,33.85013 a 24.830276,24.830276 0 0 0 -5.168e-4,0.01654 24.830276,24.830276 0 0 0 5.168e-4,0.01654 z"
       id="path2079" /><path
       style="color:#000000;fill:#4e94e4;stroke-width:1.32292;-inkscape-stroke:none"
       d="M 33.866666,9.0361408 A 24.830276,24.830276 0 0 0 9.114689,31.994946 h 15.482776 c 0.874198,-4.31435 4.706228,-7.58455 9.269718,-7.58455 4.563491,0 8.39552,3.2702 9.269718,7.58455 H 58.624845 A 24.830276,24.830276 0 0 0 33.866666,9.0361408 Z"
       id="path2076" /><path
       style="color:#000000;fill:#4e94e4;stroke-width:2.56374;-inkscape-stroke:none;paint-order:markers stroke fill"
       d="m 33.866666,27.658256 a 6.2083064,6.2083064 0 0 0 -6.20841,6.20841 6.2083064,6.2083064 0 0 0 6.20841,6.208411 6.2083064,6.2083064 0 0 0 6.208411,-6.208411 6.2083064,6.2083064 0 0 0 -6.208411,-6.20841 z m 0,2.015838 a 4.1927607,4.1927607 0 0 1 4.192571,4.192572 4.1927607,4.1927607 0 0 1 -4.192571,4.192571 4.1927607,4.1927607 0 0 1 -4.192572,-4.192571 4.1927607,4.1927607 0 0 1 4.192572,-4.192572 z"
       id="path2067" /></g></svg>
