<?xml version="1.0" encoding="UTF-8" standalone="no"?>
<!-- Created with Inkscape (http://www.inkscape.org/) -->

<svg
   width="256"
   height="256"
   viewBox="0 0 67.733332 67.733333"
   version="1.1"
   id="svg2511"
   inkscape:version="1.2.2 (b0a8486541, 2022-12-01)"
   xml:space="preserve"
   sodipodi:docname="QScanThumb.svg"
   xmlns:inkscape="http://www.inkscape.org/namespaces/inkscape"
   xmlns:sodipodi="http://sodipodi.sourceforge.net/DTD/sodipodi-0.dtd"
   xmlns="http://www.w3.org/2000/svg"
   xmlns:svg="http://www.w3.org/2000/svg"><sodipodi:namedview
     id="namedview2513"
     pagecolor="#354b5f"
     bordercolor="#000000"
     borderopacity="0.25"
     inkscape:showpageshadow="2"
     inkscape:pageopacity="1"
     inkscape:pagecheckerboard="0"
     inkscape:deskcolor="#d1d1d1"
     inkscape:document-units="px"
     showgrid="false"
     inkscape:zoom="1.8101934"
     inkscape:cx="61.043201"
     inkscape:cy="170.14757"
     inkscape:window-width="1904"
     inkscape:window-height="975"
     inkscape:window-x="35"
     inkscape:window-y="32"
     inkscape:window-maximized="0"
     inkscape:current-layer="layer1"
     showguides="true" /><defs
     id="defs2508" /><g
     inkscape:label="Layer 1"
     inkscape:groupmode="layer"
     id="layer1"><path
       style="color:#000000;fill:#4e94e4;stroke-linejoin:round;paint-order:markers stroke fill;stroke:none;stroke-width:1.00012499;stroke-dasharray:none"
       d="m 24.593847,36.489762 c -1.092579,0 -1.971972,0.879394 -1.971972,1.971973 v 3.961515 c 0,1.092579 0.879393,1.971972 1.971972,1.971972 h 3.961516 c 1.092579,0 1.971972,-0.879393 1.971972,-1.971972 v -3.961515 c 0,-1.092579 -0.879393,-1.971973 -1.971972,-1.971973 z"
       id="path406" /><path
       style="color:#000000;fill:#4e94e4;stroke-linejoin:round;paint-order:markers stroke fill;stroke:none;stroke-width:1.00012499;stroke-dasharray:none"
       d="m 38.459151,35.774043 c -1.476908,0 -2.688725,1.211301 -2.688725,2.688208 V 42.4217 c 0,1.476907 1.211817,2.688724 2.688725,2.688724 h 3.966166 c 1.476907,0 2.688725,-1.211817 2.688725,-2.688724 v -3.959449 c 0,-1.476907 -1.211818,-2.688208 -2.688725,-2.688208 z m 0,1.430921 h 3.966166 c 0.708246,0 1.257287,0.549038 1.257287,1.257287 V 42.4217 c 0,0.708246 -0.549041,1.257287 -1.257287,1.257287 h -3.966166 c -0.70825,0 -1.25057,-0.549041 -1.25057,-1.257287 v -3.959449 c 0,-0.708249 0.54232,-1.257287 1.25057,-1.257287 z"
       id="path404" /><path
       style="color:#000000;fill:#4e94e4;stroke-linejoin:round;paint-order:markers stroke fill;stroke:none;stroke-width:1.00012499;stroke-dasharray:none"
       d="m 38.461735,22.621875 c -1.092579,0 -1.971973,0.879393 -1.971973,1.971972 v 3.961516 c 0,1.092579 0.879394,1.971972 1.971973,1.971972 h 3.961515 c 1.092579,0 1.971972,-0.879393 1.971972,-1.971972 v -3.961516 c 0,-1.092579 -0.879393,-1.971972 -1.971972,-1.971972 z"
       id="path402" /><path
       style="color:#000000;fill:#4e94e4;stroke-linejoin:round;paint-order:markers stroke fill;stroke:none;stroke-width:1.00012499;stroke-dasharray:none"
       d="m 24.593847,22.621875 c -1.092579,0 -1.971972,0.879393 -1.971972,1.971972 v 3.961516 c 0,1.092579 0.879393,1.971972 1.971972,1.971972 h 3.961516 c 1.092579,0 1.971972,-0.879393 1.971972,-1.971972 v -3.961516 c 0,-1.092579 -0.879393,-1.971972 -1.971972,-1.971972 z"
       id="path400" /><path
       style="color:#000000;fill:#4e94e4;stroke-linejoin:round;paint-order:markers stroke fill;stroke:none;stroke-width:1.00012499;stroke-dasharray:none"
       d="m 24.777299,12.439551 c -6.778126,0 -12.337748,5.559622 -12.337748,12.337748 v 18.179768 c 0,6.778126 5.559622,12.337748 12.337748,12.337748 h 18.179768 c 6.778126,0 12.337748,-5.559622 12.337748,-12.337748 V 24.777299 c 0,-6.778126 -5.559622,-12.337748 -12.337748,-12.337748 z m 0,6.572208 h 18.179768 c 3.250428,0 5.763473,2.515112 5.763473,5.76554 v 18.179768 c 0,3.250428 -2.513045,5.763473 -5.763473,5.763473 H 24.777299 c -3.250428,0 -5.76554,-2.513045 -5.76554,-5.763473 V 24.777299 c 0,-3.250428 2.515112,-5.76554 5.76554,-5.76554 z"
       id="rect343" /></g></svg>
