<?xml version="1.0" encoding="UTF-8" standalone="no"?>
<!-- Created with Inkscape (http://www.inkscape.org/) -->

<svg
   width="1000"
   height="1000"
   viewBox="0 0 264.58333 264.58333"
   version="1.1"
   id="svg5"
   sodipodi:docname="QScanThumb.svg"
   inkscape:version="1.2.2 (b0a8486541, 2022-12-01)"
   xml:space="preserve"
   xmlns:inkscape="http://www.inkscape.org/namespaces/inkscape"
   xmlns:sodipodi="http://sodipodi.sourceforge.net/DTD/sodipodi-0.dtd"
   xmlns="http://www.w3.org/2000/svg"
   xmlns:svg="http://www.w3.org/2000/svg"><sodipodi:namedview
     id="namedview11226"
     pagecolor="#000000"
     bordercolor="#000000"
     borderopacity="0.25"
     inkscape:showpageshadow="2"
     inkscape:pageopacity="0"
     inkscape:pagecheckerboard="0"
     inkscape:deskcolor="#d1d1d1"
     showgrid="false"
     inkscape:zoom="0.5529575"
     inkscape:cx="824.65651"
     inkscape:cy="524.4526"
     inkscape:window-width="1904"
     inkscape:window-height="1003"
     inkscape:window-x="35"
     inkscape:window-y="32"
     inkscape:window-maximized="0"
     inkscape:current-layer="svg5" /><defs
     id="defs2" /><g
     id="g1118"
     transform="matrix(0.70004165,0,0,0.70004165,40.48627,39.68199)"><path
       style="color:#000000;fill:#ffffff;stroke-width:1.00363;-inkscape-stroke:none"
       d="m 66.84089,38.661518 c -16.564444,0 -30.124566,13.55823 -30.124566,30.12278 V 195.79904 c 0,16.56455 13.560122,30.12473 30.124566,30.12473 h 128.60374 c 16.56446,0 30.12261,-13.56018 30.12261,-30.12473 V 68.784298 c 0,-16.56455 -13.55815,-30.12278 -30.12261,-30.12278 z m 0,14.315524 h 128.60374 c 8.88169,0 15.80716,6.925509 15.80716,15.807256 V 195.79904 c 0,8.88173 -6.92549,15.80922 -15.80716,15.80922 H 66.84089 c -8.881674,0 -15.809117,-6.92749 -15.809117,-15.80922 V 68.784298 c 0,-8.881747 6.927426,-15.807256 15.809117,-15.807256 z"
       id="path603" /><rect
       style="fill:#354b5f;fill-opacity:1;stroke-width:0"
       id="rect671"
       width="75.773651"
       height="72.761421"
       x="5.9881935"
       y="9.437583" /><path
       style="color:#000000;fill:#ffffff;stroke-width:1.00363;-inkscape-stroke:none"
       d="M 27.824796,0 C 11.260596,0 -2.2978087,13.558472 -2.2978087,30.122777 v 31.391042 c 0,16.564301 13.5584047,30.122782 30.1226047,30.122782 h 32.100465 c 16.564201,0 30.122606,-13.558481 30.122606,-30.122782 V 30.122777 C 90.047867,13.558472 76.489462,0 59.925261,0 Z m 0,14.315522 h 32.100465 c 8.881917,0 15.809118,6.925278 15.809118,15.807255 v 31.391042 c 0,8.881987 -6.927201,15.809218 -15.809118,15.809218 H 27.824796 c -8.881916,0 -15.809117,-6.927231 -15.809117,-15.809218 V 30.122777 c 0,-8.881977 6.927201,-15.807255 15.809117,-15.807255 z"
       id="path597" /><path
       style="color:#000000;fill:#ffffff;stroke-width:1.00363;-inkscape-stroke:none"
       d="m 35.448079,21.764375 c -8.695857,0 -15.813056,7.119199 -15.813056,15.815097 v 16.479612 c 0,8.695898 7.117199,15.813142 15.813056,15.813142 h 16.851957 c 8.695839,0 15.814998,-7.117244 15.814998,-15.813142 V 37.579472 c 0,-8.695898 -7.119159,-15.815097 -15.814998,-15.815097 z m 0,7.515504 h 16.851957 c 4.662817,0 8.299535,3.636748 8.299535,8.299593 v 16.479612 c 0,4.662845 -3.636718,8.299589 -8.299535,8.299589 H 35.448079 c -4.662834,0 -8.299553,-3.636744 -8.299553,-8.299589 V 37.579472 c 0,-4.662845 3.636719,-8.299593 8.299553,-8.299593 z"
       id="path591" /><rect
       style="fill:#354b5f;fill-opacity:1;stroke-width:0"
       id="rect1087"
       width="75.773651"
       height="72.761421"
       x="180.52367"
       y="9.437583" /><path
       style="color:#000000;fill:#ffffff;stroke-width:1.00363;-inkscape-stroke:none"
       d="m 202.36026,0 c -16.5642,0 -30.1226,13.558472 -30.1226,30.122777 v 31.391042 c 0,16.564301 13.5584,30.122782 30.1226,30.122782 h 32.10046 c 16.56422,0 30.12261,-13.558481 30.12261,-30.122782 V 30.122777 C 264.58333,13.558472 251.02494,0 234.46072,0 Z m 0,14.315522 h 32.10046 c 8.88194,0 15.80912,6.925278 15.80912,15.807255 v 31.391042 c 0,8.88197 -6.92718,15.809218 -15.80912,15.809218 h -32.10046 c -8.88192,0 -15.80912,-6.927248 -15.80912,-15.809218 V 30.122777 c 0,-8.881977 6.9272,-15.807255 15.80912,-15.807255 z"
       id="path585" /><path
       style="color:#000000;fill:#ffffff;stroke-width:1.00363;-inkscape-stroke:none"
       d="m 209.98354,21.764375 c -8.69585,0 -15.81305,7.119195 -15.81305,15.815097 v 16.479612 c 0,8.695898 7.1172,15.813142 15.81305,15.813142 h 16.85194 c 8.69586,0 15.81502,-7.117244 15.81502,-15.813142 V 37.579472 c 0,-8.695902 -7.11916,-15.815097 -15.81502,-15.815097 z m 0,7.515504 h 16.85194 c 4.66282,0 8.29957,3.636749 8.29955,8.299593 v 16.479612 c 0,4.662845 -3.63673,8.299589 -8.29955,8.299589 h -16.85194 c -4.66282,0 -8.29955,-3.636744 -8.29955,-8.299589 V 37.579472 c 0,-4.662844 3.63673,-8.299593 8.29955,-8.299593 z"
       id="path579" /><path
       id="path564"
       style="fill:#ffffff;stroke-width:29.596"
       d="m 174.7238,166.35916 68.67132,68.67172 c 3.89339,3.8934 3.89337,10.16216 0,14.05556 -3.89337,3.89339 -10.1621,3.89341 -14.05547,0 l -68.67133,-68.67173 c -3.89337,-3.89338 -3.89337,-10.16217 0,-14.05555 3.89337,-3.8934 10.1621,-3.8934 14.05548,0 z" /><rect
       style="fill:#354b5f;fill-opacity:1;stroke-width:0"
       id="rect1091"
       width="75.773651"
       height="72.761421"
       x="5.9881935"
       y="182.38431" /><path
       style="color:#000000;fill:#ffffff;stroke-width:1.00363;-inkscape-stroke:none"
       d="m 27.824796,172.94672 c -16.5642,0 -30.1226047,13.55848 -30.1226047,30.1228 v 31.39105 c 0,16.5643 13.5584047,30.12276 30.1226047,30.12276 h 32.100465 c 16.564201,0 30.122606,-13.55846 30.122606,-30.12276 v -31.39105 c 0,-16.56432 -13.558405,-30.1228 -30.122606,-30.1228 z m 0,14.31555 h 32.100465 c 8.881917,0 15.809118,6.92527 15.809118,15.80725 v 31.39105 c 0,8.88197 -6.927201,15.8092 -15.809118,15.8092 H 27.824796 c -8.881916,0 -15.809117,-6.92723 -15.809117,-15.8092 v -31.39105 c 0,-8.88198 6.927201,-15.80725 15.809117,-15.80725 z"
       id="path573" /><path
       style="color:#000000;fill:#ffffff;stroke-width:1.00363;-inkscape-stroke:none"
       d="m 35.448079,194.71112 c -8.695857,0 -15.813056,7.11918 -15.813056,15.81509 v 16.47962 c 0,8.69588 7.117199,15.81312 15.813056,15.81312 h 16.851957 c 8.695839,0 15.814998,-7.11724 15.814998,-15.81312 v -16.47962 c 0,-8.69591 -7.119159,-15.81509 -15.814998,-15.81509 z m 0,7.51549 h 16.851957 c 4.662817,0 8.299535,3.63675 8.299535,8.2996 v 16.47962 c 0,4.66283 -3.636736,8.29761 -8.299535,8.29761 H 35.448079 c -4.662817,0 -8.299553,-3.63478 -8.299553,-8.29761 v -16.47962 c 0,-4.66285 3.636719,-8.2996 8.299553,-8.2996 z"
       id="path567" /></g></svg>
