<?xml version="1.0" encoding="UTF-8" standalone="no"?>
<!-- Created with Inkscape (http://www.inkscape.org/) -->

<svg
   width="256"
   height="256"
   viewBox="0 0 67.733332 67.733333"
   version="1.1"
   id="svg5"
   xml:space="preserve"
   inkscape:version="1.2.2 (b0a8486541, 2022-12-01)"
   sodipodi:docname="quadraticBotThumb.svg"
   xmlns:inkscape="http://www.inkscape.org/namespaces/inkscape"
   xmlns:sodipodi="http://sodipodi.sourceforge.net/DTD/sodipodi-0.dtd"
   xmlns="http://www.w3.org/2000/svg"
   xmlns:svg="http://www.w3.org/2000/svg"><sodipodi:namedview
     id="namedview7"
     pagecolor="#ffffff"
     bordercolor="#000000"
     borderopacity="0.25"
     inkscape:showpageshadow="2"
     inkscape:pageopacity="0.0"
     inkscape:pagecheckerboard="0"
     inkscape:deskcolor="#d1d1d1"
     inkscape:document-units="px"
     showgrid="false"
     inkscape:zoom="1.9200211"
     inkscape:cx="146.09214"
     inkscape:cy="145.3109"
     inkscape:window-width="1904"
     inkscape:window-height="1003"
     inkscape:window-x="35"
     inkscape:window-y="32"
     inkscape:window-maximized="0"
     inkscape:current-layer="layer1"
     showguides="true" /><defs
     id="defs2" /><g
     inkscape:label="Layer 1"
     inkscape:groupmode="layer"
     id="layer1"><circle
       style="fill:#354b5f;stroke-width:0"
       id="path365"
       cx="33.866665"
       cy="33.866665"
       r="33.866665" /><path
       id="path4138"
       style="fill:#ffffff;stroke-width:0.0661732"
       d="M 24.337532 23.279199 A 5.2921363 5.2921363 0 0 0 19.043799 28.572933 L 19.043799 46.571834 A 4.2392729 4.2392729 0 0 0 23.279199 50.807234 L 44.454134 50.807234 A 4.2392729 4.2392729 0 0 0 48.689534 46.571834 L 48.689534 28.572933 A 5.2921363 5.2921363 0 0 0 43.3958 23.279199 L 37.74705 23.279199 L 35.984366 23.279199 L 31.748966 23.279199 L 29.986283 23.279199 L 24.337532 23.279199 z M 27.773498 31.232719 A 2.6469284 2.6469284 0 0 1 30.160949 33.866666 A 2.6467299 2.6467299 0 0 1 27.514083 36.513533 A 2.6469284 2.6469284 0 1 1 27.773498 31.232719 z M 40.478666 31.232719 A 2.6469284 2.6469284 0 0 1 42.866117 33.866666 A 2.6467299 2.6467299 0 0 1 40.21925 36.513533 A 2.6469284 2.6469284 0 1 1 40.478666 31.232719 z M 14.808915 31.748966 A 2.1150056 2.1150056 0 0 0 12.691215 33.866666 L 12.691215 42.33695 A 2.1150056 2.1150056 0 0 0 14.808915 44.454134 L 16.926098 44.454134 L 16.926098 31.748966 L 14.808915 31.748966 z M 50.807234 31.748966 L 50.807234 44.454134 L 52.924417 44.454134 A 2.1150056 2.1150056 0 0 0 55.042118 42.33695 L 55.042118 33.866666 A 2.1150056 2.1150056 0 0 0 52.924417 31.748966 L 50.807234 31.748966 z M 25.396382 42.33695 L 29.631783 42.33695 L 29.631783 44.454134 L 25.396382 44.454134 L 25.396382 42.33695 z M 31.748966 42.33695 L 35.984366 42.33695 L 35.984366 44.454134 L 31.748966 44.454134 L 31.748966 42.33695 z M 38.10155 42.33695 L 42.33695 42.33695 L 42.33695 44.454134 L 38.10155 44.454134 L 38.10155 42.33695 z " /><rect
       style="fill:none;fill-opacity:1;stroke:#ffffff;stroke-width:1.28921;stroke-linejoin:round"
       id="rect4254"
       width="6.4622889"
       height="6.8408689"
       x="14.738746"
       y="34.511269"
       ry="1.6140701" /><rect
       style="fill:none;fill-opacity:1;stroke:#ffffff;stroke-width:1.28921;stroke-linejoin:round"
       id="rect4384"
       width="6.4622889"
       height="6.8408689"
       x="45.458321"
       y="34.511269"
       ry="1.6140701" /><rect
       style="fill:#354b5f;fill-opacity:1;stroke:none;stroke-width:2.11667;stroke-linejoin:round"
       id="rect4445"
       width="16.940342"
       height="2.117542"
       x="25.396494"
       y="42.336838"
       ry="0" /><rect
       style="fill:#ffffff;fill-opacity:1;stroke:none;stroke-width:2.3779;stroke-linejoin:round"
       id="rect4572"
       width="3.5144277"
       height="9.4785137"
       x="32.109451"
       y="15.446238"
       ry="1.537643" /><ellipse
       style="fill:#ffffff;fill-opacity:1;stroke:none;stroke-width:5.11618;stroke-linejoin:round"
       id="path4636"
       cx="33.866665"
       cy="13.650502"
       rx="4.2473435"
       ry="4.3404555" /></g></svg>
