<?xml version="1.0" encoding="UTF-8" standalone="no"?>
<svg
   viewBox="0 0 264 264"
   id="vector"
   version="1.1"
   sodipodi:docname="QWeatherThumb.svg"
   xml:space="preserve"
   inkscape:version="1.2.2 (b0a8486541, 2022-12-01)"
   xmlns:inkscape="http://www.inkscape.org/namespaces/inkscape"
   xmlns:sodipodi="http://sodipodi.sourceforge.net/DTD/sodipodi-0.dtd"
   xmlns="http://www.w3.org/2000/svg"
   xmlns:svg="http://www.w3.org/2000/svg"><defs
     id="defs8">
	
	
	
	
</defs><sodipodi:namedview
     id="namedview6"
     pagecolor="#354b5f"
     bordercolor="#000000"
     borderopacity="0.25"
     inkscape:showpageshadow="2"
     inkscape:pageopacity="1"
     inkscape:pagecheckerboard="0"
     inkscape:deskcolor="#d1d1d1"
     showgrid="false"
     inkscape:zoom="1.28"
     inkscape:cx="101.95312"
     inkscape:cy="192.1875"
     inkscape:window-width="1904"
     inkscape:window-height="1003"
     inkscape:window-x="35"
     inkscape:window-y="32"
     inkscape:window-maximized="0"
     inkscape:current-layer="vector" /><circle
     style="fill:#354b5f;fill-opacity:1;stroke:none;stroke-width:8.24088;stroke-linejoin:round"
     id="path4497"
     cx="132"
     cy="132"
     r="105.48328" /><path
     id="path2523"
     style="color:#000000;fill:#ffffff;stroke-width:0.799116;-inkscape-stroke:none"
     d="m 128.51089,108.63609 v 50.53782 45.27335 c 0,8.86272 7.10089,15.9636 15.96359,15.9636 8.86271,0 15.96358,-7.10087 15.96358,-15.9636 1e-5,-1.97175 -1.51538,-3.48988 -3.48832,-3.48988 -1.97297,0 -3.48989,1.51912 -3.48989,3.48988 0,4.91624 -4.06916,8.98537 -8.98537,8.98537 -4.9162,0 -8.98537,-4.06915 -8.98537,-8.98537 v -45.27335 -50.53782 z" /><style
     type="text/css"
     id="style435">
<![CDATA[
	.st0{fill:#000000;}
]]>
</style><style
     type="text/css"
     id="style450">
<![CDATA[
	.st0{fill:#000000;}
]]>
</style><path
     id="path2301"
     style="fill:#ffffff;stroke-width:2.4949"
     d="m 132,63.11879 c -15.69036,22.029876 -24.94896,48.9523 -24.94896,78.05269 v 9.38025 c 1.43707,-0.73598 2.08988,-1.89634 2.08988,-1.89634 2.86912,-6.55907 8.47275,-11.64604 15.37361,-13.81909 0,0 0.62362,-0.25167 1.55921,-0.50413 0.4678,-0.12622 1.0135,-0.25337 1.59823,-0.34805 0.29238,-0.0473 0.59514,-0.0863 0.90213,-0.11393 0.30699,-0.0276 0.61836,-0.0437 0.93022,-0.0437 0.82081,-0.0823 1.65241,-0.14046 2.49568,-0.14046 0.84327,0 1.67329,0.0581 2.49411,0.14046 h -1.28608 c 0.47065,0.006 0.92237,2.5e-4 1.40002,0.0234 0.47765,0.0232 0.95393,0.056 1.41562,0.10301 0.46169,0.0471 0.91013,0.10919 1.3329,0.18729 0.42277,0.0781 0.81906,0.17235 1.17994,0.28875 0.3556,0.11469 0.67401,0.25165 0.94739,0.41048 v -0.003 c 6.90086,2.17305 12.5045,7.26002 15.37361,13.81909 0,0 0.65438,1.16036 2.09144,1.89634 v -9.38025 c 0,-29.10039 -9.25859,-56.022815 -24.94895,-78.05269 z" /><path
     fill="#231f20"
     d="m 52.163285,141.97959 c 0,0 0,2.49489 2.494898,2.49489 2.494897,0 4.657973,-2.49489 4.657973,-2.49489 4.523249,-4.61556 10.82037,-7.48469 17.796103,-7.48469 10.229079,0 19.006128,6.16239 22.858249,14.96938 0,0 0.653662,1.16013 2.090722,1.89612 v -9.38081 c 0,-29.62691 9.26355,-57.065787 24.99388,-79.669557 -41.787032,2.55727 -74.891825,37.236343 -74.891825,79.669557 z"
     id="path1807"
     style="fill:#ffffff;stroke-width:2.4949" /><path
     fill="#231f20"
     d="m 136.94489,62.310033 c 15.73033,22.60377 24.99388,50.042647 24.99388,79.669557 v 9.38081 c 1.43706,-0.73599 2.09072,-1.89612 2.09072,-1.89612 3.85213,-8.80699 12.62917,-14.96938 22.85825,-14.96938 6.97573,0 13.27036,2.86913 17.7961,7.48469 0,0 2.16308,2.49489 4.65798,2.49489 2.49489,0 2.49489,-2.49489 2.49489,-2.49489 0,-42.433214 -33.10479,-77.112287 -74.89182,-79.669557 z"
     id="path1809"
     style="fill:#ffffff;stroke-width:2.4949" /><path
     fill="#231f20"
     d="m 132,52.163285 c -4.13404,0 -7.48469,3.353143 -7.48469,7.484692 h 14.96938 c 0,-4.131549 -3.35065,-7.484692 -7.48469,-7.484692 z"
     id="path1811"
     style="fill:#ffffff;stroke-width:2.4949" /></svg>
