<svg
    xmlns="http://www.w3.org/2000/svg"
    viewBox="0 0 264 264"
    id="vector">
    <g
        id="group"
        transform="translate(67.61489 67.61489) scale(0.4888889 0.4888889)">
        <path
            id="path"
            d="M 117.89 64.38 C 103.951 64.38 90.476 67.582 79.986 73.387 C 69.496 79.192 62.69 87.213 60.84 95.95 C 46.307 99.289 34.532 103.585 26.429 108.507 C 18.325 113.428 14.11 118.842 14.11 124.33 C 14.113 124.373 14.116 124.417 14.12 124.46 C 4.978 130.198 0.007 137.271 0 144.55 C 0 150.286 3.083 155.922 8.939 160.89 C 14.794 165.858 23.218 169.984 33.36 172.852 C 43.502 175.72 55.009 177.23 66.72 177.23 C 67.984 177.228 69.248 177.208 70.51 177.17 C 75.439 183.869 84.952 189.703 97.69 193.837 C 110.427 197.971 125.751 200.198 141.47 200.2 C 152.071 200.2 162.552 199.188 172.216 197.232 C 181.879 195.275 190.505 192.418 197.52 188.85 C 215.94 187.737 232.982 182.912 245.354 175.306 C 257.727 167.7 264.58 157.837 264.59 147.62 C 264.589 139.676 260.451 131.896 252.67 125.21 C 252.715 124.917 252.749 124.623 252.77 124.33 C 252.768 119.407 249.374 114.537 242.801 110.025 C 236.228 105.514 226.617 101.457 214.57 98.11 C 211.716 91.321 205.314 85.308 196.371 81.019 C 187.428 76.729 176.441 74.401 165.14 74.4 C 162.775 74.402 160.412 74.505 158.07 74.71 C 147.325 68.089 132.902 64.38 117.9 64.38 Z"
            fill="#f2f2f2"
            stroke-width="18.5641"/>
        <path
            id="path_1"
            d="M 169.35 133.68 Q 169.35 144.27 165.99 152.3 Q 162.63 160.34 156.83 165.52 L 168.15 179.74 L 152.54 179.74 L 146.16 171.9 Q 139.71 174.33 132.29 174.33 Q 121.74 174.33 113.36 169.54 Q 104.97 164.75 100.11 155.67 Q 95.24 146.55 95.24 133.68 Q 95.24 120.74 100.11 111.65 Q 104.98 102.57 113.36 97.82 Q 121.75 93.03 132.29 93.03 Q 142.8 93.03 151.19 97.82 Q 159.58 102.57 164.44 111.65 Q 169.35 120.73 169.35 133.68 Z M 126.5 145.73 L 140.72 145.73 L 146.59 153.26 Q 149.33 149.98 150.84 145.07 Q 152.39 140.16 152.39 133.67 Q 152.39 121.07 146.9 114.47 Q 141.41 107.82 132.29 107.82 Q 123.17 107.82 117.68 114.47 Q 112.19 121.08 112.19 133.67 Q 112.19 146.23 117.68 152.87 Q 123.17 159.52 132.29 159.52 Q 134.57 159.52 136.62 159.09 Z"
            fill="#3b4252"
            stroke-width="362.705"/>
    </g>
</svg>
